<svg xmlns="http://www.w3.org/2000/svg" viewBox="0 0 24 24" id="Logo-Social-Media-Instagram--Streamline-Pixel" height="24" width="24">
  <desc>
    Logo Social Media Instagram Streamline Icon: https://streamlinehq.com
  </desc>
  <title>logo-social-media-instagram</title>
  <g>
    <path d="M22.8525 2.2874999999999996H24v19.424999999999997h-1.1475Z" fill="#000000" stroke-width="0.75"></path>
    <path d="M21.7125 21.7125h1.1400000000000001v1.1475h-1.1400000000000001Z" fill="#000000" stroke-width="0.75"></path>
    <path d="M21.7125 1.1400000000000001h1.1400000000000001v1.1475h-1.1400000000000001Z" fill="#000000" stroke-width="0.75"></path>
    <path d="M2.2800000000000002 22.86h19.4325V24H2.2800000000000002Z" fill="#000000" stroke-width="0.75"></path>
    <path d="M20.565 3.4275H19.424999999999997V2.2874999999999996H4.5675v1.1400000000000001H3.4275v1.1400000000000001H2.2800000000000002V19.424999999999997h1.1475v1.1475h1.1400000000000001v1.1400000000000001H19.424999999999997v-1.1400000000000001h1.1400000000000001V19.424999999999997h1.1475V4.5675h-1.1475ZM19.424999999999997 18.285h-1.1400000000000001v1.1400000000000001H5.7075000000000005v-1.1400000000000001H4.5675V5.715h1.1400000000000001V4.5675h12.5775v1.1475h1.1400000000000001Z" fill="#000000" stroke-width="0.75"></path>
    <path d="M15.997499999999999 5.715h2.2874999999999996v2.2874999999999996h-2.2874999999999996Z" fill="#000000" stroke-width="0.75"></path>
    <path d="M15.997499999999999 9.1425h-1.1400000000000001v-1.1400000000000001h-5.715v1.1400000000000001h-1.1475v1.1400000000000001H6.855v5.715h1.1400000000000001v1.1475h1.1475v1.1400000000000001h5.715v-1.1400000000000001h1.1400000000000001v-1.1475h1.1400000000000001v-5.715h-1.1400000000000001Zm-1.1400000000000001 5.715h-1.1475v1.1400000000000001h-3.4275v-1.1400000000000001h-1.1400000000000001v-3.4275h1.1400000000000001v-1.1475h3.4275v1.1475h1.1475Z" fill="#000000" stroke-width="0.75"></path>
    <path d="M2.2800000000000002 0h19.4325v1.1400000000000001H2.2800000000000002Z" fill="#000000" stroke-width="0.75"></path>
    <path d="M1.1400000000000001 21.7125h1.1400000000000001v1.1475H1.1400000000000001Z" fill="#000000" stroke-width="0.75"></path>
    <path d="M1.1400000000000001 1.1400000000000001h1.1400000000000001v1.1475H1.1400000000000001Z" fill="#000000" stroke-width="0.75"></path>
    <path d="M0 2.2874999999999996h1.1400000000000001v19.424999999999997H0Z" fill="#000000" stroke-width="0.75"></path>
  </g>
</svg>