<svg xmlns="http://www.w3.org/2000/svg" viewBox="0 0 24 24" id="Logo-Whatapp--Streamline-Pixel" height="24" width="24">
  <desc>
    Logo Whatapp Streamline Icon: https://streamlinehq.com
  </desc>
  <title>logo-whatapp</title>
  <g>
    <path d="M22.8525 8.5725H24v6.855h-1.1475Z" fill="#000000" stroke-width="0.75"></path>
    <path d="M21.7125 15.4275h1.1400000000000001v2.2874999999999996h-1.1400000000000001Z" fill="#000000" stroke-width="0.75"></path>
    <path d="M21.7125 6.285h1.1400000000000001v2.2874999999999996h-1.1400000000000001Z" fill="#000000" stroke-width="0.75"></path>
    <path d="M20.565 17.715h1.1475v2.2800000000000002h-1.1475Z" fill="#000000" stroke-width="0.75"></path>
    <path d="M20.565 3.9975h1.1475v2.2874999999999996h-1.1475Z" fill="#000000" stroke-width="0.75"></path>
    <path d="M18.285 19.995h2.2800000000000002v1.1475h-2.2800000000000002Z" fill="#000000" stroke-width="0.75"></path>
    <path d="M18.285 2.8575h2.2800000000000002v1.1400000000000001h-2.2800000000000002Z" fill="#000000" stroke-width="0.75"></path>
    <path d="m18.285 13.14 -3.4275 0 0 1.1475 -1.1475 0 0 -1.1475 -1.1400000000000001 0 0 -1.1400000000000001 -1.1475 0 0 -1.1475 -1.1400000000000001 0 0 -1.1400000000000001 1.1400000000000001 0 0 -3.4275 -1.1400000000000001 0 0 -1.1475 -3.4275 0 0 1.1475 -1.1475 0 0 3.4275 1.1475 0 0 2.2874999999999996 1.1400000000000001 0 0 1.1400000000000001 1.1475 0 0 1.1475 1.1400000000000001 0 0 1.1400000000000001 1.1400000000000001 0 0 1.1400000000000001 1.1475 0 0 1.1475 2.2874999999999996 0 0 1.1400000000000001 3.4275 0 0 -1.1400000000000001 1.1400000000000001 0 0 -3.4275 -1.1400000000000001 0 0 -1.1475z" fill="#000000" stroke-width="0.75"></path>
    <path d="M15.997499999999999 21.142500000000002h2.2874999999999996v1.1400000000000001h-2.2874999999999996Z" fill="#000000" stroke-width="0.75"></path>
    <path d="M15.997499999999999 1.71h2.2874999999999996v1.1475h-2.2874999999999996Z" fill="#000000" stroke-width="0.75"></path>
    <path d="M9.1425 22.2825h6.855v1.1475h-6.855Z" fill="#000000" stroke-width="0.75"></path>
    <path d="M9.1425 0.5700000000000001h6.855v1.1400000000000001h-6.855Z" fill="#000000" stroke-width="0.75"></path>
    <path d="M5.7075000000000005 21.142500000000002h3.435v1.1400000000000001H5.7075000000000005Z" fill="#000000" stroke-width="0.75"></path>
    <path d="M6.855 1.71h2.2874999999999996v1.1475H6.855Z" fill="#000000" stroke-width="0.75"></path>
    <path d="M4.5675 2.8575h2.2874999999999996v1.1400000000000001H4.5675Z" fill="#000000" stroke-width="0.75"></path>
    <path d="m2.2800000000000002 22.2825 0 -1.1400000000000001 -1.1400000000000001 0 0 1.1400000000000001 -1.1400000000000001 0 0 1.1475 5.7075000000000005 0 0 -1.1475 -3.4275 0z" fill="#000000" stroke-width="0.75"></path>
    <path d="M3.4275 17.715h1.1400000000000001v2.2800000000000002H3.4275Z" fill="#000000" stroke-width="0.75"></path>
    <path d="M3.4275 3.9975h1.1400000000000001v2.2874999999999996H3.4275Z" fill="#000000" stroke-width="0.75"></path>
    <path d="M2.2800000000000002 19.995h1.1475v1.1475H2.2800000000000002Z" fill="#000000" stroke-width="0.75"></path>
    <path d="M2.2800000000000002 15.4275h1.1475v2.2874999999999996H2.2800000000000002Z" fill="#000000" stroke-width="0.75"></path>
    <path d="M2.2800000000000002 6.285h1.1475v2.2874999999999996H2.2800000000000002Z" fill="#000000" stroke-width="0.75"></path>
    <path d="M1.1400000000000001 8.5725h1.1400000000000001v6.855H1.1400000000000001Z" fill="#000000" stroke-width="0.75"></path>
  </g>
</svg>