<svg xmlns="http://www.w3.org/2000/svg" viewBox="0 0 24 24" id="Shopping-Shipping-Cart--Streamline-Pixel" height="24" width="24">
  <desc>
    Shopping Shipping Cart Streamline Icon: https://streamlinehq.com
  </desc>
  <title>shopping-shipping-cart</title>
  <g>
    <path d="M22.8525 8.0025H24v3.4275h-1.1475Z" fill="#000000" stroke-width="0.75"></path>
    <path d="M21.7125 11.43h1.1400000000000001v3.4275h-1.1400000000000001Z" fill="#000000" stroke-width="0.75"></path>
    <path d="M20.572499999999998 14.857499999999998h1.1400000000000001v2.2874999999999996h-1.1400000000000001Z" fill="#000000" stroke-width="0.75"></path>
    <path d="M19.424999999999997 10.290000000000001h1.1475v3.4275H19.424999999999997Z" fill="#000000" stroke-width="0.75"></path>
    <path d="M9.1425 17.145h11.43v1.1400000000000001H9.1425Z" fill="#000000" stroke-width="0.75"></path>
    <path d="M18.285 13.7175h1.1400000000000001v2.2800000000000002h-1.1400000000000001Z" fill="#000000" stroke-width="0.75"></path>
    <path d="M14.857499999999998 10.290000000000001h1.1400000000000001v5.7075000000000005h-1.1400000000000001Z" fill="#000000" stroke-width="0.75"></path>
    <path d="M11.4225 13.7175h1.1475v2.2800000000000002h-1.1475Z" fill="#000000" stroke-width="0.75"></path>
    <path d="M10.2825 10.290000000000001h1.1400000000000001v3.4275h-1.1400000000000001Z" fill="#000000" stroke-width="0.75"></path>
    <path d="m9.1425 21.7125 0 1.1475 1.1400000000000001 0 0 1.1400000000000001 2.2874999999999996 0 0 -1.1400000000000001 1.1400000000000001 0 0 -1.1475 2.2874999999999996 0 0 1.1475 1.1400000000000001 0 0 1.1400000000000001 2.2874999999999996 0 0 -1.1400000000000001 1.1475 0 0 -1.1475 2.2800000000000002 0 0 -1.1400000000000001 -3.4275 0 0 -1.1400000000000001 -2.2874999999999996 0 0 1.1400000000000001 -4.5675 0 0 -1.1400000000000001 -2.2874999999999996 0 0 1.1400000000000001 -2.2874999999999996 0 0 1.1400000000000001 1.1475 0z" fill="#000000" stroke-width="0.75"></path>
    <path d="M7.995 18.285h1.1475v1.1475h-1.1475Z" fill="#000000" stroke-width="0.75"></path>
    <path d="M7.995 13.7175h1.1475v3.4275h-1.1475Z" fill="#000000" stroke-width="0.75"></path>
    <path d="M6.855 19.4325h1.1400000000000001v1.1400000000000001H6.855Z" fill="#000000" stroke-width="0.75"></path>
    <path d="M6.855 10.290000000000001h1.1400000000000001v3.4275H6.855Z" fill="#000000" stroke-width="0.75"></path>
    <path d="m6.855 10.290000000000001 0 -2.2874999999999996 15.997499999999999 0 0 -1.1475 -17.137500000000003 0 0 3.435 1.1400000000000001 0z" fill="#000000" stroke-width="0.75"></path>
    <path d="M4.5675 4.574999999999999h1.1475v2.2800000000000002H4.5675Z" fill="#000000" stroke-width="0.75"></path>
    <path d="M3.4275 2.2874999999999996h1.1400000000000001V4.574999999999999H3.4275Z" fill="#000000" stroke-width="0.75"></path>
    <path d="M2.2800000000000002 1.1400000000000001h1.1475v1.1475H2.2800000000000002Z" fill="#000000" stroke-width="0.75"></path>
    <path d="M0 0h2.2800000000000002v1.1400000000000001H0Z" fill="#000000" stroke-width="0.75"></path>
  </g>
</svg>