<?xml version="1.0" standalone="no"?>
<!DOCTYPE svg PUBLIC "-//W3C//DTD SVG 20010904//EN"
 "http://www.w3.org/TR/2001/REC-SVG-20010904/DTD/svg10.dtd">
<svg version="1.0" xmlns="http://www.w3.org/2000/svg"
 width="463.000000pt" height="118.000000pt" viewBox="0 0 463.000000 118.000000"
 preserveAspectRatio="xMidYMid meet">

<g transform="translate(0.000000,118.000000) scale(0.100000,-0.100000)"
fill="#000000" stroke="none">
<path d="M0 1105 c0 -60 3 -75 15 -75 12 0 15 15 15 75 0 60 -3 75 -15 75 -12
0 -15 -15 -15 -75z"/>
<path d="M300 1135 c0 -33 4 -45 15 -45 8 0 15 -7 15 -15 0 -8 -7 -15 -15 -15
-8 0 -15 -7 -15 -15 0 -8 -7 -15 -15 -15 -8 0 -15 -7 -15 -15 0 -8 7 -15 15
-15 8 0 15 -7 15 -15 0 -8 -7 -15 -15 -15 -10 0 -15 -10 -15 -30 0 -20 -5 -30
-15 -30 -8 0 -15 -7 -15 -15 0 -8 -7 -15 -15 -15 -8 0 -15 -7 -15 -15 0 -8 -7
-15 -15 -15 -8 0 -15 -7 -15 -15 0 -10 -10 -15 -30 -15 -20 0 -30 -5 -30 -15
0 -8 -7 -15 -15 -15 -8 0 -15 -7 -15 -15 0 -8 -7 -15 -15 -15 -8 0 -15 -4 -15
-10 0 -5 -13 -10 -30 -10 l-30 0 0 -285 c0 -247 2 -285 15 -285 8 0 15 7 15
15 0 8 7 15 15 15 8 0 15 7 15 15 0 8 -7 15 -15 15 -8 0 -15 7 -15 15 0 8 7
15 15 15 8 0 15 7 15 15 0 8 7 15 15 15 10 0 15 10 15 30 0 20 5 30 15 30 8 0
15 -7 15 -15 0 -8 7 -15 15 -15 8 0 15 7 15 15 0 8 -7 15 -15 15 -10 0 -15 10
-15 30 0 20 5 30 15 30 11 0 15 12 15 45 0 33 4 45 15 45 12 0 15 17 15 90 l0
90 30 0 c27 0 30 3 30 30 0 20 5 30 15 30 9 0 15 9 15 25 0 16 6 25 15 25 10
0 15 10 15 30 0 20 5 30 15 30 8 0 15 7 15 15 0 8 7 15 15 15 11 0 15 12 15
45 0 43 1 45 30 45 29 0 30 2 30 45 0 33 4 45 15 45 8 0 15 7 15 15 0 8 7 15
15 15 8 0 15 7 15 15 0 8 7 15 15 15 8 0 15 7 15 15 0 8 7 15 15 15 8 0 15 7
15 15 0 13 -20 15 -120 15 l-120 0 0 -45z m30 -225 c0 -27 -3 -30 -30 -30 -20
0 -30 5 -30 15 0 8 7 15 15 15 8 0 15 7 15 15 0 8 7 15 15 15 10 0 15 -10 15
-30z"/>
<path d="M990 1150 c0 -20 -5 -30 -15 -30 -12 0 -15 -13 -15 -60 l0 -60 30 0
c29 0 30 -2 30 -45 0 -33 4 -45 15 -45 11 0 15 -12 15 -45 l0 -45 70 0 c56 0
70 -3 70 -15 0 -8 -7 -15 -15 -15 -8 0 -15 -7 -15 -15 0 -8 -4 -15 -10 -15 -5
0 -10 -4 -10 -10 0 -6 45 -10 115 -10 96 0 115 -3 115 -15 0 -11 -12 -15 -45
-15 -33 0 -45 -4 -45 -15 0 -12 -14 -15 -70 -15 -56 0 -70 -3 -70 -15 0 -8 -7
-15 -15 -15 -10 0 -15 10 -15 30 0 20 -5 30 -15 30 -11 0 -15 11 -15 40 0 38
-2 40 -30 40 -20 0 -30 -5 -30 -15 0 -8 7 -15 15 -15 8 0 15 -4 15 -10 0 -5
-7 -10 -15 -10 -8 0 -15 5 -15 10 0 6 -7 10 -15 10 -8 0 -15 7 -15 15 0 8 -7
15 -15 15 -8 0 -15 7 -15 15 0 10 -10 15 -30 15 -20 0 -30 -5 -30 -15 0 -10
10 -15 30 -15 20 0 30 -5 30 -15 0 -8 7 -15 15 -15 9 0 15 -9 15 -25 0 -16 6
-25 15 -25 12 0 15 -15 15 -75 0 -60 -3 -75 -15 -75 -12 0 -15 15 -15 75 0 60
-3 75 -15 75 -8 0 -15 7 -15 15 0 10 -10 15 -30 15 -16 0 -30 5 -30 10 0 6
-20 10 -45 10 -33 0 -45 4 -45 15 0 8 -7 15 -15 15 -8 0 -15 -7 -15 -15 0 -8
-7 -15 -15 -15 -8 0 -15 7 -15 15 0 8 -7 15 -15 15 -8 0 -15 -7 -15 -15 0 -11
-12 -15 -45 -15 -25 0 -45 -4 -45 -10 0 -5 -7 -10 -15 -10 -10 0 -15 -10 -15
-30 0 -20 -5 -30 -15 -30 -8 0 -15 -7 -15 -15 0 -8 -7 -15 -15 -15 -12 0 -15
-15 -15 -75 0 -60 -3 -75 -15 -75 -10 0 -15 -10 -15 -30 0 -20 5 -30 15 -30 8
0 15 -7 15 -15 0 -8 7 -15 15 -15 8 0 15 -7 15 -15 0 -8 7 -15 15 -15 8 0 15
-7 15 -15 0 -8 -7 -15 -15 -15 -8 0 -15 7 -15 15 0 10 -10 15 -30 15 -20 0
-30 5 -30 15 0 8 -7 15 -15 15 -8 0 -15 -7 -15 -15 0 -8 7 -15 15 -15 8 0 15
-7 15 -15 0 -8 7 -15 15 -15 8 0 15 -7 15 -15 0 -8 7 -15 15 -15 8 0 15 -7 15
-15 0 -8 7 -15 15 -15 8 0 15 -7 15 -15 0 -8 -7 -15 -15 -15 -10 0 -15 -10
-15 -30 0 -20 -5 -30 -15 -30 -8 0 -15 -7 -15 -15 0 -10 -10 -15 -30 -15 -20
0 -30 -5 -30 -15 0 -8 -7 -15 -15 -15 -8 0 -15 -7 -15 -15 0 -8 -7 -15 -15
-15 -8 0 -15 -7 -15 -15 0 -8 -7 -15 -15 -15 -8 0 -15 -7 -15 -15 0 -8 -7 -15
-15 -15 -8 0 -15 -7 -15 -15 0 -8 -7 -15 -15 -15 -8 0 -15 -4 -15 -10 0 -7
285 -10 835 -10 l835 0 0 55 c0 42 -3 55 -15 55 -12 0 -15 20 -15 120 0 100 3
120 15 120 12 0 15 -18 15 -105 0 -87 3 -105 15 -105 12 0 15 -14 15 -70 0
-56 3 -70 15 -70 9 0 15 9 15 25 0 16 6 25 15 25 9 0 15 -9 15 -25 l0 -25 150
0 c93 0 150 4 150 10 0 6 37 10 90 10 73 0 90 3 90 15 0 11 12 15 45 15 33 0
45 4 45 15 0 12 15 15 75 15 l75 0 0 -40 0 -40 60 0 c33 0 60 4 60 10 0 6 14
10 30 10 20 0 30 5 30 15 0 10 10 15 30 15 20 0 30 5 30 15 0 12 15 15 75 15
60 0 75 3 75 15 0 8 7 15 15 15 8 0 15 -7 15 -15 0 -11 12 -15 45 -15 33 0 45
-4 45 -15 0 -8 7 -15 15 -15 8 0 15 -7 15 -15 0 -8 7 -15 15 -15 8 0 15 -4 15
-10 0 -7 165 -10 475 -10 310 0 475 3 475 10 0 6 7 10 15 10 8 0 15 -4 15 -10
0 -6 42 -10 105 -10 63 0 105 4 105 10 0 6 7 10 15 10 8 0 15 -4 15 -10 0 -5
7 -10 15 -10 13 0 15 31 15 220 0 189 -2 220 -15 220 -8 0 -15 7 -15 15 0 8 7
15 15 15 13 0 15 39 15 295 0 256 -2 295 -15 295 -8 0 -15 7 -15 15 0 8 7 15
15 15 11 0 15 12 15 45 l0 45 -255 0 -255 0 0 -30 c0 -20 5 -30 15 -30 8 0 15
-7 15 -15 0 -8 7 -15 15 -15 8 0 15 -7 15 -15 0 -8 7 -15 15 -15 8 0 15 7 15
15 0 8 -7 15 -15 15 -8 0 -15 7 -15 15 0 8 -7 15 -15 15 -8 0 -15 7 -15 15 0
8 7 15 15 15 8 0 15 -7 15 -15 0 -8 7 -15 15 -15 8 0 15 -7 15 -15 0 -8 7 -15
15 -15 8 0 15 -7 15 -15 0 -8 -7 -15 -15 -15 -10 0 -15 -10 -15 -30 0 -20 -5
-30 -15 -30 -8 0 -15 7 -15 15 0 8 -7 15 -15 15 -8 0 -15 7 -15 15 0 8 -7 15
-15 15 -8 0 -15 7 -15 15 0 8 -7 15 -15 15 -8 0 -15 7 -15 15 0 8 -7 15 -15
15 -8 0 -15 7 -15 15 0 8 -7 15 -15 15 -8 0 -15 7 -15 15 0 13 -27 15 -180 15
-153 0 -180 -2 -180 -15 0 -8 -7 -15 -15 -15 -8 0 -15 7 -15 15 0 13 -21 15
-130 15 l-130 0 0 -45 c0 -33 -4 -45 -15 -45 -8 0 -15 -7 -15 -15 0 -8 7 -15
15 -15 8 0 15 7 15 15 0 8 7 15 15 15 8 0 15 7 15 15 0 8 7 15 15 15 8 0 15
-7 15 -15 0 -8 -7 -15 -15 -15 -8 0 -15 -7 -15 -15 0 -8 -7 -15 -15 -15 -8 0
-15 -7 -15 -15 0 -8 -7 -15 -15 -15 -8 0 -15 7 -15 15 0 8 -7 15 -15 15 -12 0
-15 13 -15 60 l0 60 -285 0 c-247 0 -285 -2 -285 -15 0 -8 -7 -15 -15 -15 -8
0 -15 7 -15 15 0 12 -13 15 -60 15 l-60 0 0 -75 c0 -60 3 -75 15 -75 8 0 15
-7 15 -15 0 -8 7 -15 15 -15 8 0 15 -7 15 -15 0 -8 7 -15 15 -15 10 0 15 -10
15 -30 0 -20 -5 -30 -15 -30 -8 0 -15 7 -15 15 0 8 -7 15 -15 15 -8 0 -15 -7
-15 -15 0 -8 7 -15 15 -15 8 0 15 -7 15 -15 0 -8 7 -15 15 -15 8 0 15 -7 15
-15 0 -8 7 -15 15 -15 8 0 15 -7 15 -15 0 -8 7 -15 15 -15 10 0 15 -10 15 -30
0 -20 -5 -30 -15 -30 -12 0 -15 -19 -15 -115 0 -96 3 -115 15 -115 13 0 15
-20 15 -120 0 -100 -2 -120 -15 -120 -10 0 -15 -10 -15 -30 0 -20 5 -30 15
-30 8 0 15 -7 15 -15 0 -12 17 -15 90 -15 73 0 90 3 90 15 0 8 7 15 15 15 8 0
15 7 15 15 0 8 7 15 15 15 8 0 15 7 15 15 0 8 7 15 15 15 8 0 15 -7 15 -15 0
-8 -7 -15 -15 -15 -10 0 -15 -10 -15 -30 0 -27 -3 -30 -30 -30 -20 0 -30 -5
-30 -15 0 -12 -18 -15 -105 -15 -87 0 -105 3 -105 15 0 8 -7 15 -15 15 -8 0
-15 7 -15 15 0 8 -7 15 -15 15 -8 0 -15 7 -15 15 0 8 -7 15 -15 15 -10 0 -15
10 -15 30 0 20 -5 30 -15 30 -12 0 -15 13 -15 60 0 47 -3 60 -15 60 -12 0 -15
15 -15 75 0 60 -3 75 -15 75 -12 0 -15 15 -15 75 0 60 -3 75 -15 75 -12 0 -15
14 -15 70 0 56 3 70 15 70 12 0 15 13 15 60 0 47 3 60 15 60 8 0 15 -7 15 -15
0 -8 7 -15 15 -15 8 0 15 7 15 15 0 8 -7 15 -15 15 -10 0 -15 10 -15 30 0 20
-5 30 -15 30 -8 0 -15 7 -15 15 0 8 -7 15 -15 15 -12 0 -15 -18 -15 -105 0
-87 -3 -105 -15 -105 -13 0 -15 22 -15 135 0 113 2 135 15 135 8 0 15 7 15 15
0 13 -22 15 -135 15 l-135 0 0 -30 c0 -20 -5 -30 -15 -30 -10 0 -15 10 -15 30
l0 30 -75 0 c-60 0 -75 -3 -75 -15 0 -8 7 -15 15 -15 8 0 15 -7 15 -15 0 -8 7
-15 15 -15 10 0 15 -10 15 -30 0 -20 -5 -30 -15 -30 -8 0 -15 -7 -15 -15 0 -8
-7 -15 -15 -15 -8 0 -15 7 -15 15 0 8 -7 15 -15 15 -8 0 -15 7 -15 15 0 8 7
15 15 15 8 0 15 7 15 15 0 8 -7 15 -15 15 -8 0 -15 7 -15 15 0 10 -10 15 -30
15 -20 0 -30 5 -30 15 0 13 -48 15 -375 15 l-375 0 0 -30 c0 -20 5 -30 15 -30
8 0 15 -7 15 -15 0 -8 -7 -15 -15 -15 -8 0 -15 7 -15 15 0 10 -10 15 -30 15
-20 0 -30 5 -30 15 0 8 -4 15 -10 15 -5 0 -10 7 -10 15 0 12 -15 15 -75 15
l-75 0 0 -30z m1700 -15 c0 -8 -7 -15 -15 -15 -8 0 -15 7 -15 15 0 8 7 15 15
15 8 0 15 -7 15 -15z m180 -30 c0 -8 -7 -15 -15 -15 -8 0 -15 7 -15 15 0 8 7
15 15 15 8 0 15 -7 15 -15z m210 0 c0 -8 -7 -15 -15 -15 -8 0 -15 7 -15 15 0
8 7 15 15 15 8 0 15 -7 15 -15z m-360 -30 c0 -10 -10 -15 -30 -15 -20 0 -30 5
-30 15 0 10 10 15 30 15 20 0 30 -5 30 -15z m300 -15 c0 -20 5 -30 15 -30 8 0
15 -7 15 -15 0 -8 -7 -15 -15 -15 -8 0 -15 7 -15 15 0 8 -7 15 -15 15 -8 0
-15 -7 -15 -15 0 -8 -7 -15 -15 -15 -8 0 -15 7 -15 15 0 8 7 15 15 15 10 0 15
10 15 30 0 20 5 30 15 30 10 0 15 -10 15 -30z m-210 -15 c0 -8 7 -15 15 -15 8
0 15 -7 15 -15 0 -8 -7 -15 -15 -15 -8 0 -15 7 -15 15 0 8 -7 15 -15 15 -8 0
-15 7 -15 15 0 8 7 15 15 15 8 0 15 -7 15 -15z m90 0 c0 -8 -7 -15 -15 -15 -8
0 -15 7 -15 15 0 8 7 15 15 15 8 0 15 -7 15 -15z m300 0 c0 -10 10 -15 30 -15
27 0 30 -3 30 -30 0 -27 -3 -30 -30 -30 -27 0 -30 3 -30 30 0 20 -5 30 -15 30
-8 0 -15 7 -15 15 0 8 7 15 15 15 8 0 15 -7 15 -15z m1370 0 c0 -8 -7 -15 -15
-15 -8 0 -15 7 -15 15 0 8 7 15 15 15 8 0 15 -7 15 -15z m-300 -45 c0 -20 -5
-30 -15 -30 -10 0 -15 10 -15 30 0 20 5 30 15 30 10 0 15 -10 15 -30z m240 15
c0 -10 -10 -15 -30 -15 -20 0 -30 -5 -30 -15 0 -8 -7 -15 -15 -15 -8 0 -15 7
-15 15 0 8 7 15 15 15 8 0 15 7 15 15 0 10 10 15 30 15 20 0 30 -5 30 -15z
m-1460 -60 c0 -8 -7 -15 -15 -15 -8 0 -15 -7 -15 -15 0 -8 -7 -15 -15 -15 -8
0 -15 -7 -15 -15 0 -8 7 -15 15 -15 8 0 15 -7 15 -15 0 -10 -10 -15 -30 -15
-29 0 -30 2 -30 45 0 43 1 45 30 45 20 0 30 5 30 15 0 8 7 15 15 15 8 0 15 -7
15 -15z m1340 0 c0 -8 -7 -15 -15 -15 -8 0 -15 -7 -15 -15 0 -8 -7 -15 -15
-15 -8 0 -15 7 -15 15 0 8 7 15 15 15 8 0 15 7 15 15 0 8 7 15 15 15 8 0 15
-7 15 -15z m-1640 -30 c0 -8 -7 -15 -15 -15 -8 0 -15 7 -15 15 0 8 7 15 15 15
8 0 15 -7 15 -15z m920 0 c0 -8 -7 -15 -15 -15 -8 0 -15 7 -15 15 0 8 7 15 15
15 8 0 15 -7 15 -15z m-60 -30 c0 -8 -7 -15 -15 -15 -8 0 -15 7 -15 15 0 8 7
15 15 15 8 0 15 -7 15 -15z m120 0 c0 -8 -7 -15 -15 -15 -8 0 -15 7 -15 15 0
8 7 15 15 15 8 0 15 -7 15 -15z m-180 -30 c0 -10 -10 -15 -30 -15 -20 0 -30 5
-30 15 0 10 10 15 30 15 20 0 30 -5 30 -15z m240 0 c0 -8 -7 -15 -15 -15 -8 0
-15 7 -15 15 0 8 7 15 15 15 8 0 15 -7 15 -15z m480 -15 c0 -20 -5 -30 -15
-30 -10 0 -15 10 -15 30 0 20 5 30 15 30 10 0 15 -10 15 -30z m-810 -15 c0 -9
-9 -15 -25 -15 -16 0 -25 6 -25 15 0 9 9 15 25 15 16 0 25 -6 25 -15z m390 0
c0 -8 -7 -15 -15 -15 -8 0 -15 7 -15 15 0 8 7 15 15 15 8 0 15 -7 15 -15z
m-2120 -30 c0 -12 -15 -15 -75 -15 -60 0 -75 -3 -75 -15 0 -12 15 -15 75 -15
73 0 75 -1 75 -25 0 -21 5 -25 30 -25 20 0 30 5 30 15 0 8 7 15 15 15 8 0 15
-7 15 -15 0 -8 7 -15 15 -15 8 0 15 7 15 15 0 8 7 15 15 15 8 0 15 -7 15 -15
0 -8 7 -15 15 -15 10 0 15 -10 15 -30 0 -20 -5 -30 -15 -30 -10 0 -15 10 -15
30 0 20 -5 30 -15 30 -10 0 -15 -10 -15 -30 0 -20 5 -30 15 -30 8 0 15 -7 15
-15 0 -8 7 -15 15 -15 8 0 15 -7 15 -15 0 -10 10 -15 30 -15 20 0 30 -5 30
-15 0 -8 -7 -15 -15 -15 -8 0 -15 -7 -15 -15 0 -10 -10 -15 -30 -15 -20 0 -30
5 -30 15 0 8 7 15 15 15 8 0 15 7 15 15 0 10 -10 15 -30 15 -20 0 -30 5 -30
15 0 8 -7 15 -15 15 -8 0 -15 7 -15 15 0 8 -7 15 -15 15 -8 0 -15 7 -15 15 0
10 -10 15 -30 15 -20 0 -30 5 -30 15 0 12 -13 15 -60 15 -47 0 -60 3 -60 15 0
12 -13 15 -60 15 -33 0 -60 4 -60 10 0 6 7 10 15 10 8 0 15 7 15 15 0 10 10
15 30 15 20 0 30 5 30 15 0 12 15 15 75 15 60 0 75 -3 75 -15z m1650 0 c0 -8
-7 -15 -15 -15 -8 0 -15 7 -15 15 0 8 7 15 15 15 8 0 15 -7 15 -15z m530 0 c0
-8 -7 -15 -15 -15 -8 0 -15 7 -15 15 0 8 7 15 15 15 8 0 15 -7 15 -15z m-2450
-30 c0 -12 -18 -15 -105 -15 -87 0 -105 3 -105 15 0 12 18 15 105 15 87 0 105
-3 105 -15z m390 0 c0 -10 -10 -15 -30 -15 -20 0 -30 5 -30 15 0 10 10 15 30
15 20 0 30 -5 30 -15z m1470 0 c0 -10 -10 -15 -30 -15 -20 0 -30 5 -30 15 0
10 10 15 30 15 20 0 30 -5 30 -15z m680 0 c0 -10 10 -15 30 -15 17 0 30 -4 30
-10 0 -5 -13 -10 -30 -10 -16 0 -30 5 -30 10 0 6 -13 10 -30 10 -20 0 -30 5
-30 15 0 10 10 15 30 15 20 0 30 -5 30 -15z m240 0 c0 -8 -7 -15 -15 -15 -8 0
-15 -4 -15 -10 0 -5 -13 -10 -30 -10 -16 0 -30 5 -30 10 0 6 14 10 30 10 20 0
30 5 30 15 0 8 7 15 15 15 8 0 15 -7 15 -15z m330 0 c0 -10 -10 -15 -30 -15
-20 0 -30 5 -30 15 0 10 10 15 30 15 20 0 30 -5 30 -15z m-1340 -25 c0 -5 -7
-10 -15 -10 -8 0 -15 5 -15 10 0 6 7 10 15 10 8 0 15 -4 15 -10z m1250 0 c0
-5 -13 -10 -30 -10 -20 0 -30 -5 -30 -15 0 -8 -7 -15 -15 -15 -8 0 -15 -7 -15
-15 0 -8 -7 -15 -15 -15 -8 0 -15 -7 -15 -15 0 -8 -7 -15 -15 -15 -8 0 -15 -7
-15 -15 0 -8 -7 -15 -15 -15 -10 0 -15 -10 -15 -30 0 -20 -5 -30 -15 -30 -10
0 -15 -10 -15 -30 0 -20 -5 -30 -15 -30 -13 0 -15 -23 -15 -150 0 -127 -2
-150 -15 -150 -13 0 -15 23 -15 150 0 127 2 150 15 150 10 0 15 10 15 30 0 20
5 30 15 30 10 0 15 10 15 30 0 20 5 30 15 30 8 0 15 7 15 15 0 8 7 15 15 15 8
0 15 7 15 15 0 8 7 15 15 15 8 0 15 7 15 15 0 8 7 15 15 15 8 0 15 7 15 15 0
8 7 15 15 15 8 0 15 5 15 10 0 6 14 10 30 10 17 0 30 -4 30 -10z m-3730 -40
c0 -20 -5 -30 -15 -30 -10 0 -15 10 -15 30 0 20 5 30 15 30 10 0 15 -10 15
-30z m2420 15 c0 -8 -7 -15 -15 -15 -8 0 -15 7 -15 15 0 8 7 15 15 15 8 0 15
-7 15 -15z m-1590 -30 c0 -8 -7 -15 -15 -15 -8 0 -15 7 -15 15 0 8 7 15 15 15
8 0 15 -7 15 -15z m-770 -45 c0 -20 -5 -30 -15 -30 -10 0 -15 10 -15 30 0 20
5 30 15 30 10 0 15 -10 15 -30z m2330 15 c0 -8 -7 -15 -15 -15 -8 0 -15 7 -15
15 0 8 7 15 15 15 8 0 15 -7 15 -15z m-2420 -30 c0 -11 -12 -15 -45 -15 -33 0
-45 4 -45 15 0 11 12 15 45 15 33 0 45 -4 45 -15z m470 0 c0 -8 -7 -15 -15
-15 -8 0 -15 7 -15 15 0 8 7 15 15 15 8 0 15 -7 15 -15z m540 0 c0 -8 7 -15
15 -15 10 0 15 -10 15 -30 0 -20 -5 -30 -15 -30 -8 0 -15 7 -15 15 0 11 -12
15 -45 15 -33 0 -45 4 -45 15 0 8 7 15 15 15 8 0 15 7 15 15 0 10 10 15 30 15
20 0 30 -5 30 -15z m2180 0 c0 -10 -10 -15 -30 -15 -20 0 -30 -5 -30 -15 0
-10 -10 -15 -30 -15 -20 0 -30 -5 -30 -15 0 -8 -7 -15 -15 -15 -8 0 -15 -7
-15 -15 0 -10 -10 -15 -30 -15 -20 0 -30 -5 -30 -15 0 -10 -10 -15 -30 -15
-20 0 -30 -5 -30 -15 0 -8 -7 -15 -15 -15 -8 0 -15 -7 -15 -15 0 -10 -10 -15
-30 -15 -20 0 -30 -5 -30 -15 0 -10 -10 -15 -30 -15 -20 0 -30 -5 -30 -15 0
-9 -9 -15 -25 -15 -16 0 -25 -6 -25 -15 0 -10 -10 -15 -30 -15 -20 0 -30 -5
-30 -15 0 -8 -7 -15 -15 -15 -8 0 -15 -7 -15 -15 0 -10 -10 -15 -30 -15 -20 0
-30 -5 -30 -15 0 -10 -10 -15 -30 -15 -20 0 -30 -5 -30 -15 0 -10 -10 -15 -30
-15 -20 0 -30 -5 -30 -15 0 -8 -7 -15 -15 -15 -8 0 -15 -7 -15 -15 0 -8 -7
-15 -15 -15 -8 0 -15 7 -15 15 0 8 -7 15 -15 15 -8 0 -15 7 -15 15 0 8 7 15
15 15 8 0 15 7 15 15 0 10 10 15 30 15 20 0 30 5 30 15 0 10 10 15 30 15 20 0
30 5 30 15 0 8 7 15 15 15 8 0 15 7 15 15 0 10 10 15 30 15 20 0 30 5 30 15 0
10 10 15 30 15 20 0 30 5 30 15 0 8 7 15 15 15 8 0 15 7 15 15 0 11 11 15 40
15 29 0 40 4 40 15 0 10 10 15 30 15 20 0 30 5 30 15 0 8 7 15 15 15 8 0 15 7
15 15 0 10 10 15 30 15 20 0 30 5 30 15 0 10 10 15 30 15 20 0 30 5 30 15 0
10 10 15 30 15 20 0 30 5 30 15 0 11 12 15 45 15 33 0 45 4 45 15 0 10 10 15
30 15 20 0 30 -5 30 -15z m690 0 c0 -10 -10 -15 -30 -15 -20 0 -30 -5 -30 -15
0 -8 -7 -15 -15 -15 -8 0 -15 7 -15 15 0 8 7 15 15 15 8 0 15 7 15 15 0 10 10
15 30 15 20 0 30 -5 30 -15z m-4000 -30 c0 -11 12 -15 45 -15 33 0 45 -4 45
-15 0 -12 -13 -15 -60 -15 l-60 0 0 30 c0 20 5 30 15 30 8 0 15 -7 15 -15z
m650 0 c0 -8 -7 -15 -15 -15 -8 0 -15 7 -15 15 0 8 7 15 15 15 8 0 15 -7 15
-15z m240 0 c0 -8 -7 -15 -15 -15 -8 0 -15 7 -15 15 0 8 7 15 15 15 8 0 15 -7
15 -15z m-590 -45 c0 -29 -2 -30 -45 -30 -33 0 -45 4 -45 15 0 10 10 15 30 15
20 0 30 5 30 15 0 8 7 15 15 15 10 0 15 -10 15 -30z m530 15 c0 -8 -7 -15 -15
-15 -8 0 -15 7 -15 15 0 8 7 15 15 15 8 0 15 -7 15 -15z m1680 -15 c0 -20 -5
-30 -15 -30 -10 0 -15 10 -15 30 0 20 5 30 15 30 10 0 15 -10 15 -30z m1370
15 c0 -8 -7 -15 -15 -15 -8 0 -15 -7 -15 -15 0 -8 -7 -15 -15 -15 -8 0 -15 7
-15 15 0 8 7 15 15 15 8 0 15 7 15 15 0 8 7 15 15 15 8 0 15 -7 15 -15z
m-3700 -45 c0 -20 -5 -30 -15 -30 -10 0 -15 10 -15 30 0 20 5 30 15 30 10 0
15 -10 15 -30z m890 15 c0 -8 -7 -15 -15 -15 -8 0 -15 7 -15 15 0 8 7 15 15
15 8 0 15 -7 15 -15z m-980 -45 c0 -27 3 -30 30 -30 20 0 30 -5 30 -15 0 -11
-12 -15 -45 -15 l-45 0 0 45 c0 33 4 45 15 45 10 0 15 -10 15 -30z m390 0 c0
-20 -5 -30 -15 -30 -10 0 -15 10 -15 30 0 20 5 30 15 30 10 0 15 -10 15 -30z
m260 0 c0 -20 -5 -30 -15 -30 -8 0 -15 -7 -15 -15 0 -8 -7 -15 -15 -15 -8 0
-15 7 -15 15 0 8 -7 15 -15 15 -8 0 -15 7 -15 15 0 10 10 15 30 15 20 0 30 5
30 15 0 8 7 15 15 15 10 0 15 -10 15 -30z m180 0 c0 -20 -5 -30 -15 -30 -8 0
-15 -7 -15 -15 0 -8 7 -15 15 -15 8 0 15 7 15 15 0 8 7 15 15 15 8 0 15 7 15
15 0 8 7 15 15 15 8 0 15 7 15 15 0 8 7 15 15 15 11 0 15 -12 15 -45 0 -33 -4
-45 -15 -45 -8 0 -15 -7 -15 -15 0 -11 -12 -15 -45 -15 -33 0 -45 4 -45 15 0
8 -7 15 -15 15 -10 0 -15 10 -15 30 0 20 5 30 15 30 8 0 15 7 15 15 0 8 7 15
15 15 10 0 15 -10 15 -30z m480 15 c0 -8 -7 -15 -15 -15 -11 0 -15 -12 -15
-45 0 -33 -4 -45 -15 -45 -8 0 -15 7 -15 15 0 8 -7 15 -15 15 -10 0 -15 10
-15 30 0 27 3 30 30 30 20 0 30 5 30 15 0 8 7 15 15 15 8 0 15 -7 15 -15z
m-210 -60 c0 -33 4 -45 15 -45 11 0 15 12 15 45 0 33 4 45 15 45 8 0 15 -7 15
-15 0 -8 7 -15 15 -15 10 0 15 -10 15 -30 0 -20 -5 -30 -15 -30 -8 0 -15 -7
-15 -15 0 -11 -12 -15 -45 -15 -33 0 -45 4 -45 15 0 8 -7 15 -15 15 -10 0 -15
10 -15 30 0 20 5 30 15 30 8 0 15 7 15 15 0 8 7 15 15 15 11 0 15 -12 15 -45z
m2630 30 c0 -8 -7 -15 -15 -15 -8 0 -15 7 -15 15 0 8 7 15 15 15 8 0 15 -7 15
-15z m-3460 -30 c0 -8 -7 -15 -15 -15 -8 0 -15 -7 -15 -15 0 -10 10 -15 30
-15 20 0 30 -5 30 -15 0 -12 -13 -15 -60 -15 -47 0 -60 -3 -60 -15 0 -8 -7
-15 -15 -15 -8 0 -15 -7 -15 -15 0 -10 -10 -15 -30 -15 -20 0 -30 5 -30 15 0
10 10 15 30 15 20 0 30 5 30 15 0 8 7 15 15 15 8 0 15 7 15 15 0 8 7 15 15 15
8 0 15 7 15 15 0 8 7 15 15 15 8 0 15 7 15 15 0 8 7 15 15 15 8 0 15 -7 15
-15z m1070 -15 c0 -20 -5 -30 -15 -30 -10 0 -15 10 -15 30 0 20 5 30 15 30 10
0 15 -10 15 -30z m1050 0 c0 -20 -5 -30 -15 -30 -10 0 -15 10 -15 30 0 20 5
30 15 30 10 0 15 -10 15 -30z m1310 -105 c0 -87 -3 -105 -15 -105 -12 0 -15
18 -15 105 0 87 3 105 15 105 12 0 15 -18 15 -105z m180 90 c0 -8 -7 -15 -15
-15 -8 0 -15 7 -15 15 0 8 7 15 15 15 8 0 15 -7 15 -15z m-2870 -30 c0 -8 7
-15 15 -15 11 0 15 -12 15 -45 0 -43 -1 -45 -30 -45 -20 0 -30 -5 -30 -15 0
-8 -7 -15 -15 -15 -10 0 -15 10 -15 30 0 27 3 30 30 30 20 0 30 5 30 15 0 10
-10 15 -30 15 -27 0 -30 3 -30 30 0 27 3 30 30 30 20 0 30 -5 30 -15z m-650
-30 c0 -10 10 -15 30 -15 20 0 30 -5 30 -15 0 -10 -10 -15 -30 -15 -20 0 -30
5 -30 15 0 8 -7 15 -15 15 -8 0 -15 7 -15 15 0 8 7 15 15 15 8 0 15 -7 15 -15z
m560 0 c0 -8 7 -15 15 -15 8 0 15 -7 15 -15 0 -8 -7 -15 -15 -15 -8 0 -15 -7
-15 -15 0 -8 -7 -15 -15 -15 -11 0 -15 12 -15 45 0 33 4 45 15 45 8 0 15 -7
15 -15z m1440 -15 c0 -20 -5 -30 -15 -30 -10 0 -15 10 -15 30 0 20 5 30 15 30
10 0 15 -10 15 -30z m1490 -30 c0 -47 3 -60 15 -60 8 0 15 -7 15 -15 0 -8 -7
-15 -15 -15 -8 0 -15 7 -15 15 0 8 -7 15 -15 15 -12 0 -15 13 -15 60 0 47 3
60 15 60 12 0 15 -13 15 -60z m-3880 15 c0 -8 -7 -15 -15 -15 -8 0 -15 7 -15
15 0 8 7 15 15 15 8 0 15 -7 15 -15z m270 0 c0 -8 -7 -15 -15 -15 -8 0 -15 7
-15 15 0 8 7 15 15 15 8 0 15 -7 15 -15z m470 0 c0 -8 -7 -15 -15 -15 -8 0
-15 -7 -15 -15 0 -8 -7 -15 -15 -15 -10 0 -15 10 -15 30 0 27 3 30 30 30 20 0
30 -5 30 -15z m-90 -30 c0 -8 -7 -15 -15 -15 -8 0 -15 -7 -15 -15 0 -8 7 -15
15 -15 8 0 15 -7 15 -15 0 -8 -7 -15 -15 -15 -8 0 -15 7 -15 15 0 8 -7 15 -15
15 -8 0 -15 7 -15 15 0 8 7 15 15 15 8 0 15 7 15 15 0 8 7 15 15 15 8 0 15 -7
15 -15z m180 0 c0 -8 -7 -15 -15 -15 -8 0 -15 7 -15 15 0 8 7 15 15 15 8 0 15
-7 15 -15z m570 -45 c0 -47 -3 -60 -15 -60 -12 0 -15 13 -15 60 0 47 3 60 15
60 12 0 15 -13 15 -60z m-1250 0 c0 -20 -5 -30 -15 -30 -10 0 -15 -10 -15 -30
0 -20 5 -30 15 -30 8 0 15 7 15 15 0 8 7 15 15 15 8 0 15 -7 15 -15 0 -8 -7
-15 -15 -15 -10 0 -15 -10 -15 -30 0 -20 -5 -30 -15 -30 -10 0 -15 10 -15 30
0 27 -3 30 -30 30 -27 0 -30 3 -30 30 0 20 5 30 15 30 10 0 15 10 15 30 0 27
3 30 30 30 27 0 30 -3 30 -30z m60 0 c0 -20 -5 -30 -15 -30 -10 0 -15 10 -15
30 0 20 5 30 15 30 10 0 15 -10 15 -30z m180 15 c0 -8 -7 -15 -15 -15 -8 0
-15 7 -15 15 0 8 7 15 15 15 8 0 15 -7 15 -15z m2390 0 c0 -8 -7 -15 -15 -15
-8 0 -15 7 -15 15 0 8 7 15 15 15 8 0 15 -7 15 -15z m-1950 -30 c0 -8 -7 -15
-15 -15 -8 0 -15 7 -15 15 0 8 7 15 15 15 8 0 15 -7 15 -15z m60 0 c0 -8 -7
-15 -15 -15 -8 0 -15 7 -15 15 0 8 7 15 15 15 8 0 15 -7 15 -15z m-530 -30 c0
-8 -7 -15 -15 -15 -8 0 -15 -7 -15 -15 0 -11 -12 -15 -45 -15 -33 0 -45 4 -45
15 0 11 12 15 45 15 33 0 45 4 45 15 0 8 7 15 15 15 8 0 15 -7 15 -15z m230
-30 c0 -33 -4 -45 -15 -45 -11 0 -15 12 -15 45 0 33 4 45 15 45 11 0 15 -12
15 -45z m1110 30 c0 -8 -7 -15 -15 -15 -8 0 -15 7 -15 15 0 8 7 15 15 15 8 0
15 -7 15 -15z m2060 -30 c0 -8 -7 -15 -15 -15 -8 0 -15 7 -15 15 0 8 7 15 15
15 8 0 15 -7 15 -15z m180 0 c0 -8 -7 -15 -15 -15 -8 0 -15 7 -15 15 0 8 7 15
15 15 8 0 15 -7 15 -15z m-330 -45 c0 -20 5 -30 15 -30 8 0 15 -7 15 -15 0 -8
-7 -15 -15 -15 -8 0 -15 7 -15 15 0 8 -7 15 -15 15 -10 0 -15 10 -15 30 0 20
5 30 15 30 10 0 15 -10 15 -30z m-3370 -15 c0 -8 -7 -15 -15 -15 -8 0 -15 7
-15 15 0 8 7 15 15 15 8 0 15 -7 15 -15z m3550 0 c0 -8 7 -15 15 -15 8 0 15
-7 15 -15 0 -8 7 -15 15 -15 8 0 15 -7 15 -15 0 -8 7 -15 15 -15 8 0 15 -7 15
-15 0 -8 -7 -15 -15 -15 -8 0 -15 7 -15 15 0 8 -7 15 -15 15 -8 0 -15 7 -15
15 0 8 -7 15 -15 15 -8 0 -15 7 -15 15 0 8 -7 15 -15 15 -8 0 -15 7 -15 15 0
8 7 15 15 15 8 0 15 -7 15 -15z m-3170 -30 c0 -8 -7 -15 -15 -15 -8 0 -15 7
-15 15 0 8 7 15 15 15 8 0 15 -7 15 -15z m3050 -60 c0 -8 -7 -15 -15 -15 -8 0
-15 7 -15 15 0 8 7 15 15 15 8 0 15 -7 15 -15z"/>
<path d="M1790 695 c0 -8 7 -15 15 -15 8 0 15 7 15 15 0 8 -7 15 -15 15 -8 0
-15 -7 -15 -15z"/>
<path d="M2540 1165 c0 -8 7 -15 15 -15 8 0 15 7 15 15 0 8 -7 15 -15 15 -8 0
-15 -7 -15 -15z"/>
<path d="M0 820 c0 -20 5 -30 15 -30 10 0 15 10 15 30 0 20 -5 30 -15 30 -10
0 -15 -10 -15 -30z"/>
<path d="M2540 775 c0 -8 7 -15 15 -15 8 0 15 7 15 15 0 8 -7 15 -15 15 -8 0
-15 -7 -15 -15z"/>
<path d="M2570 635 c0 -8 7 -15 15 -15 8 0 15 7 15 15 0 8 -7 15 -15 15 -8 0
-15 -7 -15 -15z"/>
<path d="M240 395 c0 -8 7 -15 15 -15 8 0 15 7 15 15 0 8 -7 15 -15 15 -8 0
-15 -7 -15 -15z"/>
<path d="M150 275 c0 -8 7 -15 15 -15 8 0 15 7 15 15 0 8 -7 15 -15 15 -8 0
-15 -7 -15 -15z"/>
<path d="M180 215 c0 -8 -7 -15 -15 -15 -8 0 -15 -7 -15 -15 0 -8 -7 -15 -15
-15 -8 0 -15 -7 -15 -15 0 -8 -7 -15 -15 -15 -8 0 -15 -7 -15 -15 0 -8 -7 -15
-15 -15 -8 0 -15 -7 -15 -15 0 -8 -7 -15 -15 -15 -8 0 -15 -7 -15 -15 0 -8 -7
-15 -15 -15 -9 0 -15 -9 -15 -25 0 -24 2 -25 75 -25 43 0 75 4 75 10 0 6 7 10
15 10 8 0 15 -4 15 -10 0 -5 7 -10 15 -10 9 0 15 9 15 25 0 16 -6 25 -15 25
-8 0 -15 7 -15 15 0 8 7 15 15 15 8 0 15 -7 15 -15 0 -8 7 -15 15 -15 10 0 15
10 15 30 0 20 -5 30 -15 30 -10 0 -15 10 -15 30 0 20 5 30 15 30 8 0 15 -7 15
-15 0 -8 7 -15 15 -15 8 0 15 7 15 15 0 8 -7 15 -15 15 -8 0 -15 7 -15 15 0 8
-7 15 -15 15 -8 0 -15 7 -15 15 0 8 -7 15 -15 15 -8 0 -15 -7 -15 -15z"/>
<path d="M60 155 c0 -8 -7 -15 -15 -15 -8 0 -15 -7 -15 -15 0 -8 7 -15 15 -15
8 0 15 7 15 15 0 8 7 15 15 15 8 0 15 7 15 15 0 8 -7 15 -15 15 -8 0 -15 -7
-15 -15z"/>
</g>
</svg>
